<svg
                width="24"
                height="24"
                viewBox="0 0 24 24"
                fill="none"
                xmlns="http://www.w3.org/2000/svg"
              >
                <path
                  d="M5 5C4.44772 5 4 5.44772 4 6C4 6.55228 4.44772 7 5 7H17C17.5523 7 18 6.55228 18 6C18 5.44772 17.5523 5 17 5H5Z"
                  fill="#26292E"
                ></path>
                <path
                  d="M5 9C4.44772 9 4 9.44771 4 10C4 10.5523 4.44772 11 5 11H11C11.5523 11 12 10.5523 12 10C12 9.44771 11.5523 9 11 9H5Z"
                  fill="#26292E"
                ></path>
                <path
                  d="M5 13C4.44772 13 4 13.4477 4 14C4 14.5523 4.44772 15 5 15H19C19.5523 15 20 14.5523 20 14C20 13.4477 19.5523 13 19 13H5Z"
                  fill="#26292E"
                ></path>
                <path
                  d="M4 18C4 17.4477 4.44772 17 5 17H15C15.5523 17 16 17.4477 16 18C16 18.5523 15.5523 19 15 19H5C4.44771 19 4 18.5523 4 18Z"
                  fill="#26292E"
                ></path>
              </svg>