<svg
                  width="14"
                  height="14"
                  viewBox="0 0 14 14"
                  fill="none"
                  xmlns="http://www.w3.org/2000/svg"
                >
                  <path
                    d="M8.4 9.1C8.59833 9.1 8.77053 9.0272 8.9166 8.8816C9.0622 8.73553 9.135 8.56333 9.135 8.365C9.135 8.16667 9.0622 7.99447 8.9166 7.8484C8.77053 7.7028 8.59833 7.63 8.4 7.63C8.20167 7.63 8.0297 7.7028 7.8841 7.8484C7.73803 7.99447 7.665 8.16667 7.665 8.365C7.665 8.56333 7.73803 8.73553 7.8841 8.8816C8.0297 9.0272 8.20167 9.1 8.4 9.1ZM7.875 6.86H8.925C8.925 6.52167 8.96 6.27363 9.03 6.1159C9.1 5.95863 9.26333 5.75167 9.52 5.495C9.87 5.145 10.1033 4.86197 10.22 4.6459C10.3367 4.4303 10.395 4.17667 10.395 3.885C10.395 3.36 10.2111 2.93137 9.8434 2.5991C9.47613 2.26637 8.995 2.1 8.4 2.1C7.92167 2.1 7.5047 2.23417 7.1491 2.5025C6.79303 2.77083 6.545 3.12667 6.405 3.57L7.35 3.955C7.455 3.66333 7.59803 3.44447 7.7791 3.2984C7.9597 3.1528 8.16667 3.08 8.4 3.08C8.68 3.08 8.9075 3.15863 9.0825 3.3159C9.2575 3.47363 9.345 3.68667 9.345 3.955C9.345 4.11833 9.29833 4.2728 9.205 4.4184C9.11167 4.56447 8.94833 4.74833 8.715 4.97C8.33 5.30833 8.09387 5.57363 8.0066 5.7659C7.91887 5.95863 7.875 6.32333 7.875 6.86ZM4.2 11.2C3.815 11.2 3.48553 11.063 3.2116 10.7891C2.9372 10.5147 2.8 10.185 2.8 9.8V1.4C2.8 1.015 2.9372 0.6853 3.2116 0.4109C3.48553 0.136967 3.815 0 4.2 0H12.6C12.985 0 13.3147 0.136967 13.5891 0.4109C13.863 0.6853 14 1.015 14 1.4V9.8C14 10.185 13.863 10.5147 13.5891 10.7891C13.3147 11.063 12.985 11.2 12.6 11.2H4.2ZM4.2 9.8H12.6V1.4H4.2V9.8ZM1.4 14C1.015 14 0.685533 13.863 0.4116 13.5891C0.1372 13.3147 0 12.985 0 12.6V2.8H1.4V12.6H11.2V14H1.4Z"
                    fill="#53719C"
                  />
                </svg>